<svg xmlns="http://www.w3.org/2000/svg" version="1.1" xmlns:xlink="http://www.w3.org/1999/xlink" xmlns:svgjs="http://svgjs.dev/svgjs" width="1000" height="1000" viewBox="0 0 1000 1000"><rect width="1000" height="1000" fill="#ffffff"></rect><g transform="matrix(0.7,0,0,0.7,149.57575758400532,403.1214875759984)"><svg viewBox="0 0 396 110" data-background-color="#ffffff" preserveAspectRatio="xMidYMid meet" height="277" width="1000" xmlns="http://www.w3.org/2000/svg" xmlns:xlink="http://www.w3.org/1999/xlink"><defs></defs><g id="tight-bounds" transform="matrix(1,0,0,1,0.2400000046658306,-0.040555097265723816)"><svg viewBox="0 0 395.52 110.08111019453143" height="110.08111019453143" width="395.52"><g><svg viewBox="0 0 567.8029568615322 158.03089568935857" height="110.08111019453143" width="395.52"><g transform="matrix(1,0,0,1,172.28295686153217,48.83384057016466)"><svg viewBox="0 0 395.52 60.36321454902925" height="60.36321454902925" width="395.52"><g><svg viewBox="0 0 395.52 60.36321454902925" height="60.36321454902925" width="395.52"><g><svg viewBox="0 0 395.52 60.36321454902925" height="60.36321454902925" width="395.52"><g transform="matrix(1,0,0,1,0,0)"><svg width="395.52" viewBox="2.200000047683716 -31.049999237060547 203.4300079345703 31.049999237060547" height="60.36321454902925" data-palette-color="#336a86"><path d="M19.5-7L19 0 2.2 0 2.2-31.05 19.5-31.05 19-23.4 10.75-23.4 10.75-18.75 17.9-18.75 17.9-12.15 10.75-12.15 10.75-7 19.5-7ZM39.7-16.1L44.3 0 34.55 0 32.45-9.9 32.05-9.9 29.7 0 20.5 0 25.35-16.1 20.9-31.05 31-31.05 32.7-21.85 33.1-21.85 34.95-31.05 43.75-31.05 39.7-16.1ZM65.34-31.05L64.84-23.5 59.05-23.5 59.05 0 50.5 0 50.5-23.5 44.35-23.5 44.85-31.05 65.34-31.05ZM88.54-21.2L88.54-21.2Q88.54-18.4 87.69-16.55 86.84-14.7 85.04-13.2L85.04-13.2 89.19 0 79.94 0 76.84-11.2 75.69-11.2 75.69 0 67.29 0 67.29-31.05 78.89-31.05Q83.89-31.05 86.22-28.7 88.54-26.35 88.54-21.2ZM76.99-16.45Q78.29-16.45 78.84-17.2 79.39-17.95 79.39-19.93 79.39-21.9 78.84-22.68 78.29-23.45 77.04-23.45L77.04-23.45 75.69-23.45 75.69-16.45 76.99-16.45ZM109.29-7L108.79 0 91.99 0 91.99-31.05 109.29-31.05 108.79-23.4 100.54-23.4 100.54-18.75 107.69-18.75 107.69-12.15 100.54-12.15 100.54-7 109.29-7ZM141.19-31.05L142.24 0 134.39 0 134.39-16.2 133.94-16.2 130.99 0 122.94 0 120.14-16.2 119.64-16.2 119.64 0 111.89 0 112.94-31.05 124.19-31.05 126.99-14.25 127.39-14.25 130.09-31.05 141.19-31.05ZM163.64-7L163.14 0 146.34 0 146.34-31.05 163.64-31.05 163.14-23.4 154.89-23.4 154.89-18.75 162.04-18.75 162.04-12.15 154.89-12.15 154.89-7 163.64-7ZM182.83-6.95L182.33 0 166.53 0 166.53-31.05 175.08-31.05 175.08-6.95 182.83-6.95ZM196.63-31.05L205.63-31.05 198.23-9.6 198.23 0 189.73 0 189.73-9.6 182.43-31.05 191.83-31.05 194.08-20.95 194.48-20.95 196.63-31.05Z" opacity="1" transform="matrix(1,0,0,1,0,0)" fill="#000000" class="undefined-text-0" data-fill-palette-color="primary" id="text-0"></path></svg></g></svg></g></svg></g></svg></g><g><svg viewBox="0 0 158.03265062365554 158.03089568935857" height="158.03089568935857" width="158.03265062365554"><g><svg xmlns="http://www.w3.org/2000/svg" xmlns:xlink="http://www.w3.org/1999/xlink" version="1.1" x="0" y="0" viewBox="4.9670000076293945 5 90.0009994506836 90" enable-background="new 0 0 100 100" xml:space="preserve" height="158.03089568935857" width="158.03265062365554" class="icon-icon-0" data-fill-palette-color="accent" id="icon-0"><g fill="#3d717e" data-fill-palette-color="accent"><polygon points="81.588,69.219 76.042,77.733 49.901,5 30.566,58.797 24.486,43.546 4.967,95 17.555,95 45,95 64.794,95 82.249,95    94.968,95  " fill="#000000" data-fill-palette-color="accent"></polygon></g></svg></g></svg></g></svg></g></svg><rect width="395.52" height="110.08111019453143" fill="none" stroke="none" visibility="hidden"></rect></g></svg></g></svg>